<svg xmlns="http://www.w3.org/2000/svg" xmlns:xlink="http://www.w3.org/1999/xlink" width="40" zoomAndPan="magnify" viewBox="0 0 30 30.000001" height="40" preserveAspectRatio="xMidYMid meet" version="1.0"><defs><clipPath id="56ac531d93"><path d="M 3.085938 2.601562 L 26.914062 2.601562 L 26.914062 26.429688 L 3.085938 26.429688 Z M 3.085938 2.601562 " clip-rule="nonzero"/></clipPath><clipPath id="5dbebe3a52"><path d="M 15 2.601562 C 8.417969 2.601562 3.085938 7.9375 3.085938 14.515625 C 3.085938 21.097656 8.417969 26.429688 15 26.429688 C 21.582031 26.429688 26.914062 21.097656 26.914062 14.515625 C 26.914062 7.9375 21.582031 2.601562 15 2.601562 Z M 15 2.601562 " clip-rule="nonzero"/></clipPath><clipPath id="c82eddae97"><path d="M 0.0859375 0.601562 L 23.914062 0.601562 L 23.914062 24.429688 L 0.0859375 24.429688 Z M 0.0859375 0.601562 " clip-rule="nonzero"/></clipPath><clipPath id="7f3e368446"><path d="M 12 0.601562 C 5.417969 0.601562 0.0859375 5.9375 0.0859375 12.515625 C 0.0859375 19.097656 5.417969 24.429688 12 24.429688 C 18.582031 24.429688 23.914062 19.097656 23.914062 12.515625 C 23.914062 5.9375 18.582031 0.601562 12 0.601562 Z M 12 0.601562 " clip-rule="nonzero"/></clipPath><clipPath id="c17ce589d3"><rect x="0" width="24" y="0" height="25"/></clipPath><clipPath id="2815f6ddee"><path d="M 7.589844 8 L 22.105469 8 L 22.105469 21 L 7.589844 21 Z M 7.589844 8 " clip-rule="nonzero"/></clipPath></defs><g clip-path="url(#56ac531d93)"><g clip-path="url(#5dbebe3a52)"><g transform="matrix(1, 0, 0, 1, 3, 2)"><g clip-path="url(#c17ce589d3)"><g clip-path="url(#c82eddae97)"><g clip-path="url(#7f3e368446)"><path fill="#222222" d="M 0.0859375 0.601562 L 23.914062 0.601562 L 23.914062 24.429688 L 0.0859375 24.429688 Z M 0.0859375 0.601562 " fill-opacity="1" fill-rule="nonzero"/></g></g></g></g></g></g><g clip-path="url(#2815f6ddee)"><path fill="#ffffff" d="M 21.015625 12.65625 C 20.222656 10.085938 17.824219 8.210938 14.996094 8.210938 C 12.167969 8.210938 9.769531 10.085938 8.972656 12.65625 C 8.164062 12.894531 7.589844 13.652344 7.589844 14.511719 C 7.589844 15.371094 8.164062 16.125 8.972656 16.367188 C 9.769531 18.9375 12.167969 20.8125 14.996094 20.8125 C 17.824219 20.8125 20.222656 18.9375 21.015625 16.367188 C 21.828125 16.128906 22.402344 15.371094 22.402344 14.511719 C 22.402344 13.652344 21.828125 12.894531 21.015625 12.65625 Z M 8.804688 15.695312 C 8.40625 15.449219 8.144531 15.003906 8.144531 14.511719 C 8.144531 14.019531 8.40625 13.574219 8.804688 13.328125 C 8.734375 13.710938 8.695312 14.109375 8.695312 14.511719 C 8.695312 14.914062 8.734375 15.308594 8.804688 15.695312 Z M 14.996094 20.257812 C 11.824219 20.257812 9.246094 17.679688 9.246094 14.511719 C 9.246094 12.320312 10.480469 10.410156 12.289062 9.441406 C 12.566406 10.027344 13.429688 11.488281 15.476562 12.308594 C 15.511719 12.324219 15.546875 12.328125 15.582031 12.328125 C 15.691406 12.328125 15.792969 12.261719 15.835938 12.15625 C 15.894531 12.011719 15.824219 11.851562 15.683594 11.796875 C 13.820312 11.050781 13.027344 9.703125 12.789062 9.203125 C 13.417969 8.941406 14.101562 8.789062 14.816406 8.765625 C 15.007812 9.15625 15.558594 10.066406 16.695312 10.582031 C 16.734375 10.601562 16.769531 10.609375 16.808594 10.609375 C 16.914062 10.609375 17.015625 10.546875 17.0625 10.445312 C 17.125 10.308594 17.0625 10.144531 16.925781 10.082031 C 16.160156 9.730469 15.699219 9.164062 15.460938 8.78125 C 18.414062 9.019531 20.742188 11.5 20.742188 14.511719 C 20.742188 17.679688 18.164062 20.257812 14.996094 20.257812 Z M 21.183594 15.695312 C 21.257812 15.3125 21.296875 14.914062 21.296875 14.511719 C 21.296875 14.109375 21.257812 13.710938 21.183594 13.328125 C 21.585938 13.574219 21.847656 14.019531 21.847656 14.511719 C 21.847656 15.003906 21.585938 15.449219 21.183594 15.695312 Z M 21.183594 15.695312 " fill-opacity="1" fill-rule="nonzero"/></g><path fill="#ffffff" d="M 12.628906 14.171875 C 11.96875 14.171875 11.429688 14.710938 11.429688 15.371094 C 11.429688 15.523438 11.554688 15.648438 11.707031 15.648438 C 11.859375 15.648438 11.984375 15.523438 11.984375 15.371094 C 11.984375 15.015625 12.273438 14.726562 12.628906 14.726562 C 12.984375 14.726562 13.273438 15.015625 13.273438 15.371094 C 13.273438 15.523438 13.398438 15.648438 13.550781 15.648438 C 13.703125 15.648438 13.828125 15.523438 13.828125 15.371094 C 13.828125 14.710938 13.289062 14.171875 12.628906 14.171875 Z M 12.628906 14.171875 " fill-opacity="1" fill-rule="nonzero"/><path fill="#ffffff" d="M 17.363281 14.171875 C 16.699219 14.171875 16.164062 14.710938 16.164062 15.371094 C 16.164062 15.523438 16.285156 15.648438 16.441406 15.648438 C 16.59375 15.648438 16.714844 15.523438 16.714844 15.371094 C 16.714844 15.015625 17.003906 14.726562 17.363281 14.726562 C 17.71875 14.726562 18.007812 15.015625 18.007812 15.371094 C 18.007812 15.523438 18.128906 15.648438 18.285156 15.648438 C 18.4375 15.648438 18.558594 15.523438 18.558594 15.371094 C 18.558594 14.710938 18.023438 14.171875 17.363281 14.171875 Z M 17.363281 14.171875 " fill-opacity="1" fill-rule="nonzero"/><path fill="#ffffff" d="M 16.6875 17.230469 C 16.578125 17.125 16.402344 17.125 16.296875 17.230469 C 15.59375 17.933594 14.449219 17.933594 13.75 17.230469 C 13.640625 17.125 13.464844 17.125 13.359375 17.230469 C 13.25 17.339844 13.25 17.515625 13.359375 17.621094 C 13.800781 18.066406 14.394531 18.3125 15.023438 18.3125 C 15.652344 18.3125 16.242188 18.066406 16.6875 17.621094 C 16.792969 17.515625 16.792969 17.339844 16.6875 17.230469 Z M 16.6875 17.230469 " fill-opacity="1" fill-rule="nonzero"/><path fill="#ffffff" d="M 15.363281 15.769531 L 14.625 15.769531 C 14.472656 15.769531 14.351562 15.894531 14.351562 16.046875 C 14.351562 16.199219 14.472656 16.324219 14.625 16.324219 L 15.363281 16.324219 C 15.515625 16.324219 15.640625 16.199219 15.640625 16.046875 C 15.640625 15.894531 15.515625 15.769531 15.363281 15.769531 Z M 15.363281 15.769531 " fill-opacity="1" fill-rule="nonzero"/></svg>